# xmcd CD database file
#
# Track frame offsets:
#	150
#	22875
#	42712
#	62862
#	80150
#	101900
#	123425
#	145500
#	168400
#	191462
#	212050
#	235935
#	255400
#	277245
#	297907
#	328220
#
# Disc length: 4386 seconds
#
# Revision: 26
# Processed by: cddbd v1.5.1PL0 Copyright (c) Steve Scherf et al.
# Submitted via: CDex 1.51
#
DISCID=f7112010
DTITLE=モーニング娘。 - ベスト! モーニング娘。1
DYEAR=2001
DGENRE=JPop
TTITLE0=LOVEマシーン
TTITLE1=抱いて HOLD ON ME!
TTITLE2=恋のダンスサイト
TTITLE3=サマーナイトタウン
TTITLE4=ハッピーサマーウェディング
TTITLE5=I WISH
TTITLE6=恋愛レボリューション21
TTITLE7=Memory 青春の光
TTITLE8=真夏の光線
TTITLE9=モーニングコーヒー
TTITLE10=ふるさと
TTITLE11=Say Yeah! ―もっとミラクルナイト―
TTITLE12=DANCEするのだ！
TTITLE13=Never Forget
TTITLE14=愛の種
TTITLE15=(DATA)
EXTD=YEAR: 2001
EXTT0=
EXTT1=
EXTT2=
EXTT3=
EXTT4=
EXTT5=
EXTT6=
EXTT7=
EXTT8=
EXTT9=
EXTT10=
EXTT11=
EXTT12=
EXTT13=
EXTT14=
EXTT15=
PLAYORDER=
